<svg xmlns="http://www.w3.org/2000/svg"  viewBox="0 0 135 135" width="512px" height="512px"><g id="_x31_20"><path fill="#9ee6ff" d="M131.5,67.4949799c0,35.3466797-28.6481781,64.0051422-63.9948578,64.0051422 S3.5,102.8416595,3.5,67.4949799S32.1584625,3.4998777,67.5051422,3.4998777S131.5,32.148304,131.5,67.4949799z"/><path fill="#76d8ff" d="M116.7106247,67.5c0,0.2952499,0,0.5987167-0.0082092,0.8940125 C116.2266464,95.1727676,94.3854294,116.7106247,67.5,116.7106247c-23.9983902,0-43.9779892-17.1662979-48.3248672-39.9016342 C18.5927372,73.7989502,18.2893753,70.6822891,18.2893753,67.5c0-27.1724701,22.0299454-49.2106247,49.2106247-49.2106247 C94.6805801,18.2893753,116.7106247,40.3275299,116.7106247,67.5z"/><path fill="#e5f5f9" d="M109.2359772,48.7967911v-2.4224854h-9.2521973V36.0480118h-2.4224854v10.3262939h-8.0386963V36.0480118 h-2.4224854v10.3262939h-8.0386963V36.0480118h-2.4224854v10.3262939h-8.0411377V36.0480118h-2.4223633v10.3262939h-8.0386925 V36.0480118h-2.4224854v10.3262939h-8.0386963V36.0480118h-2.4224854v10.3262939h-8.0386963V36.0480118h-2.4224854v10.3262939 h-9.2500019v2.4224854h9.2500019v8.0411377h-9.2500019v2.4223633h9.2500019v8.0386963h-9.2500019v2.4224854h9.2500019V77.76017 h-9.2500019v2.4224854h9.2500019v8.0410767h-9.2500019v2.4224854h9.2500019v10.3239365h2.4224854V90.6462173h8.0386963 v10.3239365h2.4224854V90.6462173h8.0386963v10.3239365h2.4224854V90.6462173h8.0386925v10.3239365h2.4223633V90.6462173 h8.0411377v10.3239365h2.4224854V90.6462173h8.0386963v10.3239365h2.4224854V90.6462173h8.0386963v10.3239365h2.4224854 V90.6462173h9.2521973V88.223732h-9.2521973v-8.0410767h9.2521973V77.76017h-9.2521973v-8.0386963h9.2521973v-2.4224854 h-9.2521973v-8.0386963h9.2521973v-2.4223633h-9.2521973v-8.0411377H109.2359772z M45.2530708,88.223732h-8.0386963v-8.0410767 h8.0386963V88.223732z M45.2530708,77.76017h-8.0386963v-8.0386963h8.0386963V77.76017z M45.2530708,67.2989883h-8.0386963 v-8.0386963h8.0386963V67.2989883z M45.2530708,56.8379288h-8.0386963v-8.0411377h8.0386963V56.8379288z M55.7142525,88.223732 h-8.0386963v-8.0410767h8.0386963V88.223732z M55.7142525,77.76017h-8.0386963v-8.0386963h8.0386963V77.76017z M55.7142525,67.2989883h-8.0386963v-8.0386963h8.0386963V67.2989883z M55.7142525,56.8379288h-8.0386963v-8.0411377h8.0386963 V56.8379288z M66.1754303,88.223732h-8.0386925v-8.0410767h8.0386925V88.223732z M66.1754303,77.76017h-8.0386925v-8.0386963 h8.0386925V77.76017z M66.1754303,67.2989883h-8.0386925v-8.0386963h8.0386925V67.2989883z M66.1754303,56.8379288h-8.0386925 v-8.0411377h8.0386925V56.8379288z M76.6389313,88.223732h-8.0411377v-8.0410767h8.0411377V88.223732z M76.6389313,77.76017 h-8.0411377v-8.0386963h8.0411377V77.76017z M76.6389313,67.2989883h-8.0411377v-8.0386963h8.0411377V67.2989883z M76.6389313,56.8379288h-8.0411377v-8.0411377h8.0411377V56.8379288z M87.1001129,88.223732h-8.0386963v-8.0410767h8.0386963 V88.223732z M87.1001129,77.76017h-8.0386963v-8.0386963h8.0386963V77.76017z M87.1001129,67.2989883h-8.0386963v-8.0386963 h8.0386963V67.2989883z M87.1001129,56.8379288h-8.0386963v-8.0411377h8.0386963V56.8379288z M97.5612946,88.223732h-8.0386963 v-8.0410767h8.0386963V88.223732z M97.5612946,77.76017h-8.0386963v-8.0386963h8.0386963V77.76017z M97.5612946,67.2989883 h-8.0386963v-8.0386963h8.0386963V67.2989883z M97.5612946,56.8379288h-8.0386963v-8.0411377h8.0386963V56.8379288z"/><path fill="#2c8cff" d="M116.791687,38.7452698v62.224884h-7.5568161v-62.224884 c0-1.4905434-1.2083206-2.698864-2.6988678-2.698864H28.463995c-1.4905415,0-2.698864,1.2083206-2.698864,2.698864v62.224884 h-7.556818v-62.224884c0-5.6640587,4.5916252-10.255682,10.255682-10.255682h78.0720062 C112.2000656,28.4895878,116.791687,33.0812111,116.791687,38.7452698z"/><path fill="#1273ff" d="M35.7949409,28.487587c-5.6600361,0-10.2500019,4.5900879-10.2500019,10.2600098v62.2200317h-7.3399658 V38.7475967c0-5.6699219,4.5999756-10.2600098,10.2600098-10.2600098H35.7949409z"/><g opacity=".3"><path fill="#fff" d="M82.9341965,33.4618835H60.859642c-0.6421776,0-1.1618195-0.5196419-1.1618195-1.1618156 c0-0.6421795,0.5196419-1.1618195,1.1618195-1.1618195h22.0745544c0.6421738,0,1.1618195,0.51964,1.1618195,1.1618195 C84.0960159,32.9422417,83.5763702,33.4618835,82.9341965,33.4618835z"/><path fill="#fff" d="M90.3203659,33.4618835h-2.7230148c-0.6421738,0-1.1618195-0.5196419-1.1618195-1.1618156 c0-0.6421795,0.5196457-1.1618195,1.1618195-1.1618195h2.7230148c0.6421738,0,1.1618195,0.51964,1.1618195,1.1618195 C91.4821854,32.9422417,90.9625397,33.4618835,90.3203659,33.4618835z"/></g><g><path fill="#4fe88d" d="M122.0499878,100.9701538c-6.1300049,9.9799805-14.9299927,18.1499634-25.3999634,23.5100098 c-2.2000122,1.1300049-4.4700317,2.1399536-6.8099976,3.0099487c-0.0599976,0.0200195-0.1100464,0.0400391-0.1700439,0.0599976 c-6.9099731,2.5500488-14.3800049,3.9500122-22.1799927,3.9500122c-0.1199951,0-0.2299805,0-0.3499756-0.0100098 c-22.9299927-0.1099854-43-12.289978-54.1900024-30.5199585H122.0499878z"/><path fill="#35d175" d="M38.5845108,107.5572205c0.0010796,0.8684158-0.7181625,1.5392609-1.5308647,1.5402679 l-12.3523045,0.0153503c-0.8125648,0.0010071-1.5335388-0.6677933-1.5346184-1.5364609 c-0.0010548-0.8483734,0.6824284-1.5335922,1.5308018-1.5346451l12.3523064-0.0153503 C37.8982048,106.0253296,38.5834579,106.708847,38.5845108,107.5572205z"/><path fill="#35d175" d="M117.302887,105.5613556c0.0005264,0.4185257-0.1687012,0.8033295-0.445488,1.0808029 s-0.6611862,0.4589386-1.0853729,0.4594727l-12.3523102,0.0153427 c-0.4241867,0.0005264-0.8090363-0.179985-1.0865097-0.4567719c-0.2774734-0.2767792-0.4475861-0.6611633-0.4481049-1.079689 c-0.0010529-0.8483734,0.6824265-1.5335922,1.5307999-1.5346451l12.3523102-0.0153503 C116.6165848,104.0294647,117.3018341,104.7129822,117.302887,105.5613556z"/><path fill="#35d175" d="M106.6387177,115.2786102c0.0010757,0.8684235-0.7181625,1.5392685-1.5308685,1.5402756 l-9.8523026,0.0215607c-0.812561,0.0010071-1.5335388-0.6677933-1.5346146-1.5364609 c-0.0010529-0.8483734,0.6824265-1.5335922,1.5307999-1.5346451l9.8523026-0.0215683 C105.9524078,113.7467194,106.6376648,114.4302368,106.6387177,115.2786102z"/><path fill="#35d175" d="M70.5517502,126.0049438c0.0010757,0.8684158-0.7181625,1.5392609-1.5308685,1.5402756 l-1.8890228,0.0023422c-0.8125687,0.0010147-1.5335388-0.6677933-1.5346222-1.5364609 c-0.0010529-0.8483734,0.6824341-1.5335922,1.5308075-1.5346451l1.8890228-0.0023499 C69.8654404,124.473053,70.5506973,125.1565704,70.5517502,126.0049438z"/><path fill="#35d175" d="M91.7184143,115.5180359c0.0026779,2.1526566-2.8002548,1.4205017-3.4198914,1.5426254 c-0.812561,0.0010071-1.5335388-0.6678009-1.5346146-1.5364685c-0.0010605-0.8483734,0.6824265-1.5335922,1.5307999-1.5346451 l1.8890305-0.0023499C91.0321121,113.986145,91.7173615,114.6696625,91.7184143,115.5180359z"/><path fill="#35d175" d="M96.6614914,124.4444962c-2.1986084,1.1327438-4.4673691,2.1455078-6.8062515,3.0184097 c-0.0599747,0.0200958-0.1100006,0.0401764-0.1699753,0.0602112l-16.0699921,0.0199661 c-0.8263245,0.00103-1.5308304-0.692009-1.5318832-1.5380707c-0.0010529-0.8499756,0.678093-1.5308151,1.5280685-1.531868 L96.6614914,124.4444962z"/><g><path fill="#35d175" d="M40.1162834,121.7280426c-0.0010757,0.8684158,0.7181664,1.5392609,1.5308647,1.5402756 l10.3523064,0.0153427c0.8125648,0.0010147,1.5335388-0.6677933,1.5346184-1.5364609 c0.0010567-0.8483734-0.6824265-1.5335922-1.5307999-1.5346451l-10.3523064-0.0153503 C40.8025932,120.1961517,40.1173401,120.8796692,40.1162834,121.7280426z"/></g></g><g><path fill="#e5f5f9" d="M60.8948822,107.8394699l-3.3254585,3.5752945 c-0.341423,0.366394-0.8078117,0.5884781-1.3074112,0.6190033l-6.4482841,0.3802948 c-2.2290115-3.1200485-3.6502762-6.8563232-3.9611359-10.9035263v-0.0027847l6.3288727-4.4746246 c0.5246735-0.3719864,1.1991844-0.4580536,1.80159-0.2331924l4.085968,1.5267105 c0.5524559,0.2081909,0.9826584,0.655098,1.1659088,1.2158203l2.0846634,6.3705902 C61.5388298,106.5847855,61.3750954,107.3231659,60.8948822,107.8394699z"/><path fill="#e5f5f9" d="M50.740818,86.5404205c-0.0360527-0.1193771-0.0887794-0.2304153-0.1526833-0.3330917 c2.2567978-2.8008499,5.196373-5.0298615,8.566288-6.4344177c0.0832863,0.1221161,0.1915169,0.2331543,0.3191948,0.3247833 l6.2539825,4.5440216c0.502449,0.3664322,0.7994843,0.9521332,0.7994843,1.5739136v4.7244949 c0,0.621788-0.2970352,1.207489-0.7994843,1.5739212l-5.0659142,3.6807709 c-0.5162697,0.3774796-1.1880684,0.4746552-1.7904053,0.26091l-4.5107498-1.6016617 c-0.5607262-0.1970749-0.9965515-0.641243-1.1880684-1.2019348L50.740818,86.5404205z"/><path fill="#e5f5f9" d="M75.8399887,111.6395874c0.5468979,0.5468369,0.7161865,1.3657303,0.4330444,2.0846634 l-2.7369461,6.9562836c-1.9153671,0.5551682-3.9417496,0.8521729-6.0374603,0.8521729 c-1.9292679,0-3.7974052-0.2526169-5.5766945-0.7244949l-2.6897812-6.6315002 c-0.2831383-0.696701-0.1387901-1.4934006,0.3719902-2.0457916l3.1588783-3.4253845 c0.3692093-0.396965,0.885479-0.6245651,1.4295311-0.6245651h7.2560959c0.5107117,0,1.0048218,0.2026291,1.3684769,0.5634689 L75.8399887,111.6395874z"/><path fill="#e5f5f9" d="M68.4701767,90.9456863v-4.727272c0-0.621788,0.2969666-1.207489,0.799408-1.5739212l6.2567673-4.5467987 c0.1276779-0.091629,0.2359695-0.2026672,0.319191-0.3247833c3.3699188,1.4045563,6.309494,3.6335678,8.5662918,6.4344177 c-0.0638428,0.1026764-0.1165695,0.2137146-0.1526871,0.3330917l-2.3011856,7.4864426 c-0.1831818,0.5884781-0.6301193,1.0576172-1.2130127,1.2602463l-4.2165604,1.4878464 c-0.6051102,0.2137146-1.2740631,0.1138229-1.7931824-0.2637253l-5.468399-3.9971848 C68.7671432,92.1476135,68.4701767,91.5646896,68.4701767,90.9456863z"/><path fill="#e5f5f9" d="M89.147438,101.5077515v0.0027847c-0.3109283,4.0388641-1.7238541,7.7640305-3.9445267,10.8812943 l-6.1623688-0.8549118c-0.4191513-0.0583191-0.8077469-0.2498703-1.1075592-0.5496445l-3.614151-3.6141281 c-0.5162735-0.5163345-0.6995239-1.2796936-0.4718857-1.9736557l1.7626953-5.4240112 c0.188736-0.574585,0.6301193-1.0298233,1.1991806-1.2296753l4.6384277-1.6460571 c0.5940018-0.210968,1.2519073-0.1221542,1.7681732,0.2414627L89.147438,101.5077515z"/><g><path fill="#d3e6ed" d="M89.2112808,99.8228302c0,0.5662537-0.0222321,1.1297531-0.0638428,1.6849213v0.0027847 c-0.3109283,4.0388641-1.7238235,7.7640305-3.9444962,10.8812943 c-2.8063736,3.9445038-6.8979721,6.9118958-11.6668549,8.2887039 c-1.9153671,0.5551682-3.9417191,0.8521729-6.0374603,0.8521729c-1.9292297,0-3.7973709-0.2526169-5.5766945-0.7244949 c-4.5385017-1.2019272-8.4913025-3.836235-11.3504372-7.3920746 c5.5525398,4.4658737,12.8965645,5.8861008,19.6335831,3.9333801 c4.7688828-1.3768082,8.8604736-4.3442001,11.6668472-8.2887039c2.2206802-3.1172638,3.6335754-6.8424301,3.9445038-10.8812943 v-0.0027771c0.0416107-0.5551682,0.0638351-1.1186752,0.0638351-1.6849289 c0-5.1491699-1.7904358-9.8819962-4.7883301-13.6016388c1.2241211,0.985405,2.3372421,2.0957413,3.3199005,3.3171539 C87.4153137,89.929718,89.2112808,94.6680984,89.2112808,99.8228302z"/></g><g><path fill="#24272b" d="M73.8469467,105.3994904c-0.2276001,0.6939621-0.0443878,1.4573212,0.4719162,1.9736557 l3.6141205,3.6141281c0.2998123,0.2997742,0.6884384,0.4913254,1.1075592,0.5496445l6.1623993,0.8549118 c-2.8063736,3.9445038-6.8979721,6.9118958-11.6668549,8.2887039l2.7369461-6.9562836 c0.2831421-0.7189331,0.1138229-1.5378265-0.4330139-2.0846634l-3.0228958-2.9951477 c-0.3636551-0.3608398-0.8577271-0.5634689-1.3684769-0.5634689h-7.2560959 c-0.5440521,0-1.0603561,0.2276001-1.4295311,0.6245651l-3.1589127,3.4253845 c-0.510746,0.5523911-0.6550941,1.3490906-0.3719559,2.0457916l2.6897812,6.6315002 c-4.9548798-1.3129654-9.2130165-4.3330917-12.1082382-8.3941498l6.4482841-0.3802948 c0.4996643-0.0305252,0.9660225-0.2526093,1.3074455-0.6190033l3.3254585-3.5752945 c0.4802132-0.516304,0.6439819-1.2546844,0.4247131-1.9264145l-2.0846634-6.3705902 c-0.1832161-0.5607224-0.6134834-1.0076294-1.1658745-1.2158203l-4.0860367-1.5267105 c-0.6023712-0.2248611-1.2768822-0.1387939-1.8015213,0.2331924l-6.3289413,4.4746246 c-0.0416451-0.5551682-0.063839-1.1186676-0.063839-1.6849213c0-5.1547318,1.7987442-9.8931122,4.7994156-13.6155014 c0.0638733,0.1026764,0.1166306,0.2137146,0.1526833,0.3330917l2.4316444,7.1117096 c0.1915169,0.5606918,0.6273422,1.0048599,1.1880684,1.2019348l4.5107498,1.6016617 c0.6023369,0.2137451,1.2741356,0.1165695,1.7904053-0.26091l5.0659142-3.6807709 c0.502449-0.3664322,0.7994843-0.9521332,0.7994843-1.5739212v-4.7244949c0-0.6217804-0.2970352-1.2074814-0.7994843-1.5739136 l-6.2539825-4.5440216c-0.1276779-0.091629-0.2359085-0.2026672-0.3191948-0.3247833 c2.5676537-1.0714722,5.3878899-1.6627655,8.3442039-1.6627655c2.9590302,0,5.7765198,0.5912933,8.3469543,1.6627655 c-0.0832901,0.1221161-0.1915512,0.2331543-0.3192291,0.3247833l-6.2567673,4.5467987 c-0.5024109,0.3664322-0.799408,0.9521332-0.799408,1.5739212v4.727272c0,0.6190033,0.2969971,1.2019272,0.7966309,1.5683594 l5.4684296,3.9971848c0.5190887,0.3775482,1.1880417,0.4774399,1.79319,0.2637253l4.2165222-1.4878464 c0.5829239-0.2026291,1.0298309-0.6717682,1.2130127-1.2602463l2.3011856-7.4864426 c0.0361176-0.1193771,0.0888443-0.2304153,0.1526871-0.3330917c3.003479,3.7223892,4.7994461,8.4607697,4.7994461,13.6155014 c0,0.5662537-0.0222321,1.1297531-0.0638428,1.6849213l-5.9320145-4.1665421 c-0.5162659-0.3636169-1.1741714-0.4524307-1.7681732-0.2414627l-4.6384583,1.6460571 c-0.5690308,0.199852-1.0104141,0.6550903-1.1991501,1.2296753L73.8469467,105.3994904z"/></g><g><path fill="#13181e" d="M60.7560883,117.9324417l1.165844,2.8757706 c-4.7702484-1.2780991-8.6767235-4.035614-11.3476906-7.3892975 C53.595047,115.8448868,57.146347,117.3738861,60.7560883,117.9324417z"/><path fill="#13181e" d="M85.2029114,112.3918304c-2.8063431,3.9445038-6.8979416,6.9118958-11.6668243,8.2887039 l2.3177948-5.887558c1.4101486-0.9049301,2.7092285-1.9653168,3.8722916-3.1617203L85.2029114,112.3918304z"/><path fill="#13181e" d="M89.2112808,99.8228302c0,0.5662537-0.0222321,1.1297531-0.0638428,1.6849213l-3.4226379-2.4038544 c0.0361252-0.3053741,0.0666199-0.6134491,0.091629-0.9243774v-0.0027771 c0.0416107-0.5551682,0.0638351-1.1186752,0.0638351-1.6849289c0-3.192215-0.6884003-6.2262344-1.9264832-8.9576569 l0.3053665-0.9937363c0.0361176-0.1193771,0.0888443-0.2304153,0.1526871-0.3330917 C87.4153137,89.929718,89.2112808,94.6680984,89.2112808,99.8228302z"/></g><g opacity=".3"><path fill="#fff" d="M61.7899818,98.0993271c-0.2235107-0.3012543-0.1599045-0.726181,0.1413498-0.9488068l3.7696114-2.7890015 c0.3039017-0.2243958,0.727951-0.1581345,0.9488068,0.1413498c0.2235107,0.3012466,0.1599045,0.726181-0.1413498,0.9488068 l-3.7696114,2.7890015C62.4350471,98.4651794,62.0110512,98.3985062,61.7899818,98.0993271z"/></g></g><g opacity=".3"><path fill="#fff" d="M114.30867,72.7035446l-0.0000076,12.0745544c0,0.6421738-0.5196381,1.1618118-1.1618118,1.1618118 c-0.6421814,0-1.1618195-0.5196381-1.1618195-1.1618118V72.7035446c0-0.6421738,0.5196457-1.1618195,1.1618195-1.1618195 C113.789032,71.5417252,114.30867,72.0613708,114.30867,72.7035446z"/></g></g></svg>