<svg width="230" height="230" viewBox="0 0 230 230" fill="none" xmlns="http://www.w3.org/2000/svg">
<g style="mix-blend-mode:soft-light">
<path d="M26.5 38.6256C26.5 32.3651 30.6376 26.8582 36.6507 25.1157C87.3987 10.4097 141.278 10.4097 192.026 25.1157C198.04 26.8582 202.177 32.3651 202.177 38.6256V94.828C202.177 152.653 167.545 204.816 114.339 227.29C61.1321 204.816 26.5 152.653 26.5 94.8279V38.6256Z" fill="black"/>
<path d="M26.5 38.6256C26.5 32.3651 30.6376 26.8582 36.6507 25.1157C87.3987 10.4097 141.278 10.4097 192.026 25.1157C198.04 26.8582 202.177 32.3651 202.177 38.6256V94.828C202.177 152.653 167.545 204.816 114.339 227.29C61.1321 204.816 26.5 152.653 26.5 94.8279V38.6256Z" stroke="white" stroke-width="5"/>
</g>
<path d="M36 45.8757C36 40.5742 39.5021 35.91 44.5932 34.4311C90.254 21.1672 138.746 21.1672 184.407 34.4311C189.498 35.91 193 40.5742 193 45.8757V96.9399C193 148.73 162.069 195.468 114.5 215.745C66.9313 195.468 36 148.73 36 96.9399V45.8757Z" fill="black" stroke="url(#paint0_linear_31_70)" stroke-width="6"/>
<circle cx="67" cy="55" r="3" fill="white" fill-opacity="0.42"/>
<path d="M76.2437 62V47.975H84.3952V50.848H78.8022L79.5162 50.1595V54.299L78.8022 53.534H84.0212V56.407H78.8022L79.5162 55.642V62H76.2437ZM83.5919 62L89.2699 47.975H92.3129L97.9824 62H94.4549L93.4519 59.263H88.1309L87.1194 62H83.5919ZM89.2444 56.39H92.3299L90.7914 52.4205L89.2444 56.39ZM98.7986 62V47.975H102.071L107.579 56.5515V47.975H110.852V62H107.579L102.071 53.4235V62H98.7986ZM114.364 62V50.8565H111.074V47.975H120.934V50.8565H117.645V62H114.364ZM119.259 62L124.937 47.975H127.98L133.649 62H130.122L129.119 59.263H123.798L122.786 62H119.259ZM124.911 56.39H127.997L126.458 52.4205L124.911 56.39ZM137.831 62.272C137.208 62.272 136.621 62.2125 136.071 62.0935C135.522 61.9802 135.02 61.83 134.567 61.643C134.119 61.456 133.723 61.2577 133.377 61.048C133.037 60.8383 132.762 60.64 132.552 60.453L134.193 57.699C134.414 57.8633 134.663 58.0362 134.941 58.2175C135.224 58.3988 135.527 58.566 135.85 58.719C136.173 58.872 136.511 58.9967 136.862 59.093C137.213 59.1893 137.567 59.2375 137.924 59.2375C138.264 59.2375 138.556 59.1893 138.8 59.093C139.044 58.9967 139.233 58.8522 139.369 58.6595C139.505 58.4668 139.573 58.226 139.573 57.937C139.573 57.6707 139.511 57.4412 139.386 57.2485C139.267 57.0502 139.083 56.866 138.834 56.696C138.585 56.526 138.267 56.3503 137.882 56.169C137.502 55.982 137.052 55.7695 136.53 55.5315C136.145 55.3502 135.785 55.1433 135.451 54.911C135.117 54.6787 134.825 54.4152 134.575 54.1205C134.326 53.8258 134.133 53.5 133.997 53.143C133.861 52.786 133.793 52.395 133.793 51.97C133.793 51.4203 133.904 50.8933 134.125 50.389C134.352 49.8847 134.672 49.4313 135.085 49.029C135.505 48.6267 136.003 48.3093 136.581 48.077C137.165 47.839 137.811 47.72 138.519 47.72C139.012 47.72 139.52 47.7795 140.041 47.8985C140.568 48.0175 141.069 48.1762 141.545 48.3745C142.021 48.5728 142.432 48.7967 142.778 49.046L141.452 51.6555C141.18 51.4685 140.882 51.3042 140.559 51.1625C140.242 51.0152 139.916 50.9018 139.582 50.8225C139.248 50.7432 138.919 50.7035 138.596 50.7035C138.262 50.7035 137.975 50.7545 137.737 50.8565C137.505 50.9528 137.324 51.0917 137.193 51.273C137.069 51.4487 137.006 51.6555 137.006 51.8935C137.006 52.0692 137.043 52.2222 137.117 52.3525C137.191 52.4772 137.301 52.5905 137.448 52.6925C137.601 52.7888 137.791 52.888 138.018 52.99C138.245 53.092 138.511 53.2053 138.817 53.33C139.508 53.6303 140.126 53.925 140.67 54.214C141.214 54.4973 141.67 54.809 142.038 55.149C142.412 55.489 142.693 55.88 142.88 56.322C143.073 56.7583 143.169 57.274 143.169 57.869C143.169 58.7927 142.948 59.5832 142.506 60.2405C142.07 60.8978 141.452 61.4022 140.653 61.7535C139.854 62.0992 138.913 62.272 137.831 62.272ZM146.404 62V55.693L141.211 47.975H145.163L148.036 52.378L150.918 47.975H154.862L149.677 55.693V62H146.404Z" fill="white"/>
<circle cx="162" cy="55" r="3" fill="white" fill-opacity="0.42"/>
<rect x="19" y="78" width="191" height="64" rx="12" fill="black" stroke="white" stroke-width="4"/>
<path d="M50.1885 130C47.7555 130 45.7227 129.568 44.09 128.703C42.4574 127.839 41.2249 126.511 40.3926 124.718C39.5602 122.893 39.096 120.54 39 117.659L46.3469 116.555C46.379 118.219 46.523 119.564 46.7791 120.588C47.0672 121.613 47.4514 122.349 47.9316 122.797C48.4438 123.245 49.052 123.469 49.7563 123.469C50.6527 123.469 51.2289 123.165 51.485 122.557C51.7731 121.949 51.9172 121.309 51.9172 120.636C51.9172 119.036 51.533 117.691 50.7647 116.603C49.9964 115.482 48.956 114.362 47.6435 113.241L44.2821 110.312C42.8095 109.064 41.561 107.655 40.5366 106.086C39.5442 104.486 39.048 102.517 39.048 100.18C39.048 96.8828 40.0244 94.3697 41.9772 92.6411C43.93 90.8804 46.587 90 49.9484 90C52.0292 90 53.6939 90.3521 54.9424 91.0564C56.2229 91.7607 57.1833 92.6891 57.8235 93.8415C58.4958 94.962 58.944 96.1625 59.1681 97.443C59.4242 98.6915 59.5682 99.892 59.6002 101.044L52.2053 101.957C52.1733 100.804 52.0932 99.8119 51.9652 98.9796C51.8691 98.1152 51.6451 97.459 51.2929 97.0108C50.9408 96.5306 50.3966 96.2905 49.6603 96.2905C48.8599 96.2905 48.2677 96.6266 47.8836 97.2989C47.5314 97.9712 47.3553 98.6435 47.3553 99.3157C47.3553 100.756 47.6915 101.941 48.3637 102.869C49.068 103.766 49.9804 104.71 51.1008 105.702L54.3181 108.535C56.0148 109.976 57.4394 111.609 58.5918 113.433C59.7763 115.258 60.3685 117.515 60.3685 120.204C60.3685 122.029 59.9524 123.693 59.12 125.198C58.2877 126.671 57.1032 127.839 55.5666 128.703C54.062 129.568 52.2693 130 50.1885 130Z" fill="white"/>
<path d="M64.5305 129.424V90.5282H77.5917C79.9286 90.5282 81.8494 90.9764 83.354 91.8727C84.8586 92.7371 85.979 94.0176 86.7153 95.7143C87.4516 97.379 87.8198 99.4118 87.8198 101.813C87.8198 104.822 87.3236 107.127 86.3312 108.727C85.3388 110.296 83.9942 111.385 82.2976 111.993C80.6009 112.601 78.6961 112.905 76.5833 112.905H73.1259V129.424H64.5305ZM73.1259 106.903H76.0071C77.0635 106.903 77.8638 106.711 78.408 106.327C78.9522 105.942 79.3044 105.366 79.4644 104.598C79.6565 103.83 79.7526 102.853 79.7526 101.669C79.7526 100.676 79.6725 99.8119 79.5125 99.0756C79.3844 98.3073 79.0483 97.6991 78.5041 97.2509C77.9598 96.8027 77.1115 96.5786 75.959 96.5786H73.1259V106.903Z" fill="white"/>
<path d="M103.104 130C100.191 130 97.8857 129.488 96.189 128.463C94.4923 127.439 93.2758 125.966 92.5395 124.046C91.8032 122.125 91.4351 119.836 91.4351 117.179V102.725C91.4351 100.036 91.8032 97.7471 92.5395 95.8583C93.2758 93.9696 94.4923 92.529 96.189 91.5366C97.8857 90.5122 100.191 90 103.104 90C106.049 90 108.37 90.5122 110.067 91.5366C111.795 92.529 113.028 93.9696 113.764 95.8583C114.5 97.7471 114.868 100.036 114.868 102.725V117.179C114.868 119.836 114.5 122.125 113.764 124.046C113.028 125.966 111.795 127.439 110.067 128.463C108.37 129.488 106.049 130 103.104 130ZM103.104 123.902C104 123.902 104.656 123.677 105.073 123.229C105.489 122.781 105.761 122.205 105.889 121.501C106.017 120.796 106.081 120.076 106.081 119.34V100.612C106.081 99.8439 106.017 99.1237 105.889 98.4514C105.761 97.7471 105.489 97.1709 105.073 96.7227C104.656 96.2745 104 96.0504 103.104 96.0504C102.271 96.0504 101.647 96.2745 101.231 96.7227C100.815 97.1709 100.543 97.7471 100.415 98.4514C100.287 99.1237 100.223 99.8439 100.223 100.612V119.34C100.223 120.076 100.271 120.796 100.367 121.501C100.495 122.205 100.751 122.781 101.135 123.229C101.551 123.677 102.207 123.902 103.104 123.902Z" fill="white"/>
<path d="M120.1 129.424V90.5282H130.808C133.433 90.5282 135.706 90.8163 137.627 91.3926C139.547 91.9688 141.036 93.0092 142.092 94.5138C143.181 95.9864 143.725 98.0832 143.725 100.804C143.725 102.405 143.597 103.83 143.341 105.078C143.085 106.327 142.605 107.415 141.9 108.343C141.228 109.24 140.252 109.992 138.971 110.6L144.301 129.424H135.418L131.144 111.993H128.695V129.424H120.1ZM128.695 107.047H131.096C132.312 107.047 133.257 106.839 133.929 106.423C134.601 105.974 135.066 105.35 135.322 104.55C135.61 103.717 135.754 102.725 135.754 101.573C135.754 99.908 135.45 98.6114 134.841 97.6831C134.233 96.7547 133.113 96.2905 131.48 96.2905H128.695V107.047Z" fill="white"/>
<path d="M152.023 129.424V96.9148H146.164V90.5282H166.476V96.9148H160.666V129.424H152.023Z" fill="white"/>
<path d="M180.225 130C177.792 130 175.759 129.568 174.126 128.703C172.494 127.839 171.261 126.511 170.429 124.718C169.597 122.893 169.132 120.54 169.036 117.659L176.383 116.555C176.415 118.219 176.559 119.564 176.816 120.588C177.104 121.613 177.488 122.349 177.968 122.797C178.48 123.245 179.088 123.469 179.793 123.469C180.689 123.469 181.265 123.165 181.521 122.557C181.81 121.949 181.954 121.309 181.954 120.636C181.954 119.036 181.569 117.691 180.801 116.603C180.033 115.482 178.992 114.362 177.68 113.241L174.318 110.312C172.846 109.064 171.597 107.655 170.573 106.086C169.581 104.486 169.084 102.517 169.084 100.18C169.084 96.8828 170.061 94.3697 172.014 92.6411C173.966 90.8804 176.623 90 179.985 90C182.066 90 183.73 90.3521 184.979 91.0564C186.259 91.7607 187.22 92.6891 187.86 93.8415C188.532 94.962 188.98 96.1625 189.204 97.443C189.461 98.6915 189.605 99.892 189.637 101.044L182.242 101.957C182.21 100.804 182.13 99.8119 182.002 98.9796C181.906 98.1152 181.681 97.459 181.329 97.0108C180.977 96.5306 180.433 96.2905 179.697 96.2905C178.896 96.2905 178.304 96.6266 177.92 97.2989C177.568 97.9712 177.392 98.6435 177.392 99.3157C177.392 100.756 177.728 101.941 178.4 102.869C179.104 103.766 180.017 104.71 181.137 105.702L184.355 108.535C186.051 109.976 187.476 111.609 188.628 113.433C189.813 115.258 190.405 117.515 190.405 120.204C190.405 122.029 189.989 123.693 189.156 125.198C188.324 126.671 187.14 127.839 185.603 128.703C184.098 129.568 182.306 130 180.225 130Z" fill="white"/>
<path d="M102.409 155C101.953 155 101.516 155.185 101.2 155.511C100.884 155.839 100.714 156.28 100.729 156.736C100.734 156.883 100.757 157.473 100.819 158.364H95.6818C94.7534 158.364 93.9999 159.117 93.9999 160.045C93.9999 171.768 102.74 176.248 105.351 177.328C106.796 180.102 108.694 182.387 111.176 183.565C108.618 184.784 107.471 187.102 106.98 188.636H106.614C105.685 188.636 104.932 189.39 104.932 190.318C104.932 191.247 105.685 192 106.614 192H123.432C124.36 192 125.114 191.247 125.114 190.318C125.114 189.39 124.36 188.636 123.432 188.636H123.066C122.574 187.102 121.428 184.784 118.869 183.565C121.351 182.387 123.25 180.102 124.695 177.328C127.305 176.248 136.045 171.768 136.045 160.045C136.045 159.117 135.292 158.364 134.364 158.364V158.365H129.226C129.288 157.474 129.312 156.883 129.316 156.736C129.332 156.28 129.162 155.84 128.845 155.512C128.529 155.185 128.092 155 127.636 155H102.409ZM97.4391 161.727H101.138C101.49 164.706 102.137 168.61 103.324 172.349C100.83 170.494 97.9379 167.205 97.4391 161.727ZM128.908 161.729H132.608C132.112 167.267 129.207 170.558 126.707 172.396C127.903 168.644 128.554 164.72 128.908 161.729ZM115.023 163.409C116.88 163.409 118.386 164.915 118.386 166.773C118.386 168.63 116.88 170.136 115.023 170.136C113.165 170.136 111.659 168.63 111.659 166.773C111.659 164.915 113.165 163.409 115.023 163.409Z" fill="white"/>
<defs>
<linearGradient id="paint0_linear_31_70" x1="64.6944" y1="45.6667" x2="185.355" y2="160.979" gradientUnits="userSpaceOnUse">
<stop stop-color="#53CD52"/>
<stop offset="1" stop-color="#EAFF4F"/>
</linearGradient>
</defs>
</svg>
