<svg width="512" height="512" viewBox="0 0 512 512" fill="none" xmlns="http://www.w3.org/2000/svg">
<path opacity="0.35" d="M229.269 372.864L147.008 455.915C136.533 466.475 119.467 466.475 108.992 455.915L26.7307 372.864C15.1467 361.173 23.424 341.333 39.872 341.333H85.3333V213.333C85.3333 189.76 104.427 170.667 128 170.667C151.573 170.667 170.667 189.76 170.667 213.333V341.333H216.128C232.576 341.333 240.853 361.173 229.269 372.864Z" fill="black"/>
<path opacity="0.35" d="M128 42.6667C151.564 42.6667 170.667 61.7692 170.667 85.3333C170.667 108.897 151.564 128 128 128C104.436 128 85.3333 108.897 85.3333 85.3333C85.3333 61.7692 104.436 42.6667 128 42.6667Z" fill="black"/>
<path opacity="0.14" d="M485.941 133.637L403.68 50.5867C393.205 40.0267 376.139 40.0267 365.664 50.5867L283.403 133.637C271.819 145.328 280.096 165.168 296.544 165.168H342.005V293.168C342.005 316.741 361.099 335.835 384.672 335.835C408.245 335.835 427.339 316.741 427.339 293.168V165.168H472.8C489.248 165.168 497.525 145.328 485.941 133.637Z" fill="black"/>
<path opacity="0.14" d="M384.672 463.835C408.236 463.835 427.338 444.732 427.338 421.168C427.338 397.604 408.236 378.501 384.672 378.501C361.108 378.501 342.005 397.604 342.005 421.168C342.005 444.732 361.108 463.835 384.672 463.835Z" fill="black"/>
</svg>
