<svg width="512" height="512" viewBox="0 0 512 512" fill="none" xmlns="http://www.w3.org/2000/svg">
<path opacity="0.35" d="M282.731 372.864L364.992 455.915C375.467 466.475 392.533 466.475 403.008 455.915L485.269 372.864C496.853 361.173 488.576 341.333 472.128 341.333H426.667V213.333C426.667 189.76 407.573 170.667 384 170.667C360.427 170.667 341.333 189.76 341.333 213.333V341.333H295.872C279.424 341.333 271.147 361.173 282.731 372.864Z" fill="black"/>
<path opacity="0.35" d="M384 42.6667C360.436 42.6667 341.333 61.7692 341.333 85.3333C341.333 108.897 360.436 128 384 128C407.564 128 426.667 108.897 426.667 85.3333C426.667 61.7692 407.564 42.6667 384 42.6667Z" fill="black"/>
<path opacity="0.35" d="M26.0588 133.637L108.32 50.5867C118.795 40.0267 135.861 40.0267 146.336 50.5867L228.597 133.637C240.181 145.328 231.904 165.168 215.456 165.168H169.995V293.168C169.995 316.741 150.901 335.835 127.328 335.835C103.755 335.835 84.6615 316.741 84.6615 293.168V165.168H39.2001C22.7521 165.168 14.4748 145.328 26.0588 133.637Z" fill="black"/>
<path opacity="0.35" d="M127.328 463.835C103.764 463.835 84.6615 444.732 84.6615 421.168C84.6615 397.604 103.764 378.501 127.328 378.501C150.892 378.501 169.995 397.604 169.995 421.168C169.995 444.732 150.892 463.835 127.328 463.835Z" fill="black"/>
</svg>
