<svg width="512" height="512" viewBox="0 0 512 512" fill="none" xmlns="http://www.w3.org/2000/svg">
<path opacity="0.35" d="M229.269 139.136L147.008 56.0853C136.533 45.5253 119.467 45.5253 108.992 56.0853L26.7307 139.136C15.1467 150.827 23.424 170.667 39.872 170.667H85.3333V298.667C85.3333 322.24 104.427 341.333 128 341.333C151.573 341.333 170.667 322.24 170.667 298.667V170.667H216.128C232.576 170.667 240.853 150.827 229.269 139.136Z" fill="black"/>
<path opacity="0.35" d="M128 469.333C151.564 469.333 170.667 450.231 170.667 426.667C170.667 403.103 151.564 384 128 384C104.436 384 85.3333 403.103 85.3333 426.667C85.3333 450.231 104.436 469.333 128 469.333Z" fill="black"/>
<path opacity="0.14" d="M485.941 378.363L403.68 461.413C393.205 471.973 376.139 471.973 365.664 461.413L283.403 378.363C271.819 366.672 280.096 346.832 296.544 346.832H342.005V218.832C342.005 195.259 361.099 176.165 384.672 176.165C408.245 176.165 427.339 195.259 427.339 218.832V346.832H472.8C489.248 346.832 497.525 366.672 485.941 378.363Z" fill="black"/>
<path opacity="0.14" d="M384.672 48.1652C408.236 48.1652 427.338 67.2677 427.338 90.8319C427.338 114.396 408.236 133.499 384.672 133.499C361.108 133.499 342.005 114.396 342.005 90.8319C342.005 67.2677 361.108 48.1652 384.672 48.1652Z" fill="black"/>
</svg>
